# xmcd
#
# Track frame offsets:
#	150
#	26088
#	37822
#	53255
#	66204
#	74320
#	85325
#	100488
#	110845
#	122093
#	132801
#	147964
#	161912
#	171162
#	182769
#	194719
#	207425
#	221373
#
# Disc length: 3154 seconds
#
# Revision: 0
# Processed by: cddbd v1.5.2PL0 Copyright (c) Steve Scherf et al.
# Submitted via: EasyCDDAExtractor 11.9.9.666
#
DISCID=0f0c5012
DTITLE=Grupo Callendula - Os Reis do Kerb
DYEAR=1900
DGENRE=
TTITLE0=Callendula na Oktoberfest
TTITLE1=Só no embalo
TTITLE2=Alemão malandro
TTITLE3=Baião do Baldo
TTITLE4=Saindo faísca
TTITLE5=Valsa mista
TTITLE6=Trote do Willmutt
TTITLE7=Chakumpum
TTITLE8=Bons tempos
TTITLE9=Maxixando
TTITLE10=Abaran
TTITLE11=Agora eu vou junto
TTITLE12=Chacoalhando tudo
TTITLE13=Bandinha da Alemôa
TTITLE14=Festa do interior
TTITLE15=Tempo da vovó
TTITLE16=A Oktoberfest está no ar
TTITLE17=Krell do Alemão
EXTD=
EXTT0=
EXTT1=
EXTT2=
EXTT3=
EXTT4=
EXTT5=
EXTT6=
EXTT7=
EXTT8=
EXTT9=
EXTT10=
EXTT11=
EXTT12=
EXTT13=
EXTT14=
EXTT15=
EXTT16=
EXTT17=
PLAYORDER=
